<?xml version="1.0" encoding="UTF-8" standalone="no"?><svg xmlns="http://www.w3.org/2000/svg" xmlns:xlink="http://www.w3.org/1999/xlink" clip-rule="evenodd" stroke-miterlimit="10" viewBox="0 0 1920 1080"><desc>SVG generated by Keynote</desc><defs></defs><g transform="matrix(1.00, 0.00, -0.00, -1.00, 0.0, 1080.0)"><g><clipPath id="clip0x6100006be240"><path d="M 0.0 1080.0 L 1920.0 1080.0 L 1920.0 0.0 L 0.0 0.0 Z M 0.0 1080.0 "></path></clipPath><g clip-path="url(#clip0x6100006be240)"><image xlink:href="../../FF3A81BE-B1B5-4CBD-976A-48B20BF73409/assets/0F43D2572F34A9AFB59E4515ED9A1249.jpeg" width="3840.00" height="2160.00" transform="matrix(0.50, 0.00, -0.00, -0.50, 0.0, 1080.0)"></image></g></g><image xlink:href="../../FF3A81BE-B1B5-4CBD-976A-48B20BF73409/assets/9E2C9CA04E1678D813ADEA01E539E3F6.png" width="1299.00" height="103.00" transform="matrix(1.00, 0.00, -0.00, -1.00, 116.0, 651.0)"></image><text xml:space="preserve" font-family="HelveticaNeue-Light,Helvetica Neue" font-size="100.0" fill="#019DDC" transform="matrix(1.00, 0.00, -0.00, -1.00, 120.0, 576.2)">W</text><text xml:space="preserve" font-family="HelveticaNeue-Light,Helvetica Neue" font-size="100.0" fill="#019DDC" transform="matrix(1.00, 0.00, -0.00, -1.00, 207.0, 576.2)">a</text><text xml:space="preserve" font-family="HelveticaNeue-Light,Helvetica Neue" font-size="100.0" fill="#019DDC" transform="matrix(1.00, 0.00, -0.00, -1.00, 258.9, 576.2)">s</text><text xml:space="preserve" font-family="HelveticaNeue-Light,Helvetica Neue" font-size="100.0" fill="#019DDC" transform="matrix(1.00, 0.00, -0.00, -1.00, 307.0, 576.2)"> </text><text xml:space="preserve" font-family="HelveticaNeue-Light,Helvetica Neue" font-size="100.0" fill="#019DDC" transform="matrix(1.00, 0.00, -0.00, -1.00, 334.8, 576.2)">i</text><text xml:space="preserve" font-family="HelveticaNeue-Light,Helvetica Neue" font-size="100.0" fill="#019DDC" transform="matrix(1.00, 0.00, -0.00, -1.00, 353.3, 576.2)">s</text><text xml:space="preserve" font-family="HelveticaNeue-Light,Helvetica Neue" font-size="100.0" fill="#019DDC" transform="matrix(1.00, 0.00, -0.00, -1.00, 401.4, 576.2)">t</text><text xml:space="preserve" font-family="HelveticaNeue-Light,Helvetica Neue" font-size="100.0" fill="#019DDC" transform="matrix(1.00, 0.00, -0.00, -1.00, 431.0, 576.2)"> </text><text xml:space="preserve" font-family="HelveticaNeue-Light,Helvetica Neue" font-size="100.0" fill="#019DDC" transform="matrix(1.00, 0.00, -0.00, -1.00, 458.8, 576.2)">e</text><text xml:space="preserve" font-family="HelveticaNeue-Light,Helvetica Neue" font-size="100.0" fill="#019DDC" transform="matrix(1.00, 0.00, -0.00, -1.00, 510.7, 576.2)">i</text><text xml:space="preserve" font-family="HelveticaNeue-Light,Helvetica Neue" font-size="100.0" fill="#019DDC" transform="matrix(1.00, 0.00, -0.00, -1.00, 529.2, 576.2)">g</text><text xml:space="preserve" font-family="HelveticaNeue-Light,Helvetica Neue" font-size="100.0" fill="#019DDC" transform="matrix(1.00, 0.00, -0.00, -1.00, 584.8, 576.2)">e</text><text xml:space="preserve" font-family="HelveticaNeue-Light,Helvetica Neue" font-size="100.0" fill="#019DDC" transform="matrix(1.00, 0.00, -0.00, -1.00, 636.7, 576.2)">n</text><text xml:space="preserve" font-family="HelveticaNeue-Light,Helvetica Neue" font-size="100.0" fill="#019DDC" transform="matrix(1.00, 0.00, -0.00, -1.00, 690.4, 576.2)">t</text><text xml:space="preserve" font-family="HelveticaNeue-Light,Helvetica Neue" font-size="100.0" fill="#019DDC" transform="matrix(1.00, 0.00, -0.00, -1.00, 720.0, 576.2)">l</text><text xml:space="preserve" font-family="HelveticaNeue-Light,Helvetica Neue" font-size="100.0" fill="#019DDC" transform="matrix(1.00, 0.00, -0.00, -1.00, 738.5, 576.2)">i</text><text xml:space="preserve" font-family="HelveticaNeue-Light,Helvetica Neue" font-size="100.0" fill="#019DDC" transform="matrix(1.00, 0.00, -0.00, -1.00, 757.0, 576.2)">c</text><text xml:space="preserve" font-family="HelveticaNeue-Light,Helvetica Neue" font-size="100.0" fill="#019DDC" transform="matrix(1.00, 0.00, -0.00, -1.00, 808.9, 576.2)">h</text><text xml:space="preserve" font-family="HelveticaNeue-Light,Helvetica Neue" font-size="100.0" fill="#019DDC" transform="matrix(1.00, 0.00, -0.00, -1.00, 862.6, 576.2)"> </text><text xml:space="preserve" font-family="HelveticaNeue-Light,Helvetica Neue" font-size="100.0" fill="#019DDC" transform="matrix(1.00, 0.00, -0.00, -1.00, 890.4, 576.2)">„</text><text xml:space="preserve" font-family="HelveticaNeue-Light,Helvetica Neue" font-size="100.0" fill="#019DDC" transform="matrix(1.00, 0.00, -0.00, -1.00, 927.4, 576.2)">B</text><text xml:space="preserve" font-family="HelveticaNeue-Light,Helvetica Neue" font-size="100.0" fill="#019DDC" transform="matrix(1.00, 0.00, -0.00, -1.00, 994.1, 576.2)">i</text><text xml:space="preserve" font-family="HelveticaNeue-Light,Helvetica Neue" font-size="100.0" fill="#019DDC" transform="matrix(1.00, 0.00, -0.00, -1.00, 1012.6, 576.2)">g</text><text xml:space="preserve" font-family="HelveticaNeue-Light,Helvetica Neue" font-size="100.0" fill="#019DDC" transform="matrix(1.00, 0.00, -0.00, -1.00, 1068.2, 576.2)"> </text><text xml:space="preserve" font-family="HelveticaNeue-Light,Helvetica Neue" font-size="100.0" fill="#019DDC" transform="matrix(1.00, 0.00, -0.00, -1.00, 1096.0, 576.2)">D</text><text xml:space="preserve" font-family="HelveticaNeue-Light,Helvetica Neue" font-size="100.0" fill="#019DDC" transform="matrix(1.00, 0.00, -0.00, -1.00, 1164.5, 576.2)">a</text><text xml:space="preserve" font-family="HelveticaNeue-Light,Helvetica Neue" font-size="100.0" fill="#019DDC" transform="matrix(1.00, 0.00, -0.00, -1.00, 1216.4, 576.2)">t</text><text xml:space="preserve" font-family="HelveticaNeue-Light,Helvetica Neue" font-size="100.0" fill="#019DDC" transform="matrix(1.00, 0.00, -0.00, -1.00, 1246.0, 576.2)">a</text><text xml:space="preserve" font-family="HelveticaNeue-Light,Helvetica Neue" font-size="100.0" fill="#019DDC" transform="matrix(1.00, 0.00, -0.00, -1.00, 1297.9, 576.2)"> </text><text xml:space="preserve" font-family="HelveticaNeue-Light,Helvetica Neue" font-size="100.0" fill="#019DDC" transform="matrix(1.00, 0.00, -0.00, -1.00, 1325.7, 576.2)">?</text><text xml:space="preserve" font-family="HelveticaNeue-Light,Helvetica Neue" font-size="100.0" fill="#019DDC" transform="matrix(1.00, 0.00, -0.00, -1.00, 1379.4, 576.2)">“</text></g></svg>