<?xml version="1.0" encoding="UTF-8" standalone="no"?><svg xmlns="http://www.w3.org/2000/svg" xmlns:xlink="http://www.w3.org/1999/xlink" clip-rule="evenodd" stroke-miterlimit="10" viewBox="0 0 1920 1080"><desc>SVG generated by Keynote</desc><defs></defs><g transform="matrix(1.00, 0.00, -0.00, -1.00, 0.0, 1080.0)"><g><clipPath id="clip0x6000006a7fe0"><path d="M 0.0 1080.0 L 1920.0 1080.0 L 1920.0 0.0 L 0.0 0.0 Z M 0.0 1080.0 "></path></clipPath><g clip-path="url(#clip0x6000006a7fe0)"><image xlink:href="0F43D2572F34A9AFB59E4515ED9A1249.jpeg" width="3840.00" height="2160.00" transform="matrix(0.50, 0.00, -0.00, -0.50, 0.0, 1080.0)"></image></g></g><g><clipPath id="clip0x6080000a67e0"><path d="M 116.0 976.0 L 1804.0 976.0 L 1804.0 343.0 L 116.0 343.0 Z M 116.0 975.6 "></path></clipPath><g clip-path="url(#clip0x6080000a67e0)"><image xlink:href="FBBA371BBF7A6E7056164541AB9DF6AE.png" width="522.00" height="294.00" transform="matrix(2.15, 0.00, -0.00, -2.15, 398.0, 976.0)"></image></g></g><image xlink:href="E1A06D700F4DC8D4D1A65C40D080B18B.png" width="1718.00" height="665.00" transform="matrix(1.00, 0.00, -0.00, 1.00, 101.0, 325.6)"></image><image xlink:href="6F84EC8892F901FDC1D94E77A97A2CCB.png" width="1029.00" height="100.00" transform="matrix(1.00, 0.00, -0.00, -1.00, 446.0, 289.0)"></image><text xml:space="preserve" font-family="HelveticaNeue-Medium,Helvetica Neue" font-size="100.0" fill="#019DDC" transform="matrix(1.00, 0.00, -0.00, -1.00, 443.1, 216.6)">B</text><text xml:space="preserve" font-family="HelveticaNeue-Medium,Helvetica Neue" font-size="100.0" fill="#019DDC" transform="matrix(1.00, 0.00, -0.00, -1.00, 513.5, 216.6)">i</text><text xml:space="preserve" font-family="HelveticaNeue-Medium,Helvetica Neue" font-size="100.0" fill="#019DDC" transform="matrix(1.00, 0.00, -0.00, -1.00, 537.5, 216.6)">g</text><text xml:space="preserve" font-family="HelveticaNeue-Medium,Helvetica Neue" font-size="100.0" fill="#019DDC" transform="matrix(1.00, 0.00, -0.00, -1.00, 596.9, 216.6)"> </text><text xml:space="preserve" font-family="HelveticaNeue-Medium,Helvetica Neue" font-size="100.0" fill="#019DDC" transform="matrix(1.00, 0.00, -0.00, -1.00, 624.7, 216.6)">D</text><text xml:space="preserve" font-family="HelveticaNeue-Medium,Helvetica Neue" font-size="100.0" fill="#019DDC" transform="matrix(1.00, 0.00, -0.00, -1.00, 696.9, 216.6)">a</text><text xml:space="preserve" font-family="HelveticaNeue-Medium,Helvetica Neue" font-size="100.0" fill="#019DDC" transform="matrix(1.00, 0.00, -0.00, -1.00, 752.5, 216.6)">t</text><text xml:space="preserve" font-family="HelveticaNeue-Medium,Helvetica Neue" font-size="100.0" fill="#019DDC" transform="matrix(1.00, 0.00, -0.00, -1.00, 785.8, 216.6)">a</text><text xml:space="preserve" font-family="HelveticaNeue-Medium,Helvetica Neue" font-size="100.0" fill="#019DDC" transform="matrix(1.00, 0.00, -0.00, -1.00, 841.4, 216.6)"> </text><text xml:space="preserve" font-family="HelveticaNeue-Medium,Helvetica Neue" font-size="100.0" fill="#019DDC" transform="matrix(1.00, 0.00, -0.00, -1.00, 869.2, 216.6)">-</text><text xml:space="preserve" font-family="HelveticaNeue-Medium,Helvetica Neue" font-size="100.0" fill="#019DDC" transform="matrix(1.00, 0.00, -0.00, -1.00, 908.1, 216.6)"> </text><text xml:space="preserve" font-family="HelveticaNeue-Medium,Helvetica Neue" font-size="100.0" fill="#019DDC" transform="matrix(1.00, 0.00, -0.00, -1.00, 935.9, 216.6)">L</text><text xml:space="preserve" font-family="HelveticaNeue-Medium,Helvetica Neue" font-size="100.0" fill="#019DDC" transform="matrix(1.00, 0.00, -0.00, -1.00, 993.3, 216.6)">i</text><text xml:space="preserve" font-family="HelveticaNeue-Medium,Helvetica Neue" font-size="100.0" fill="#019DDC" transform="matrix(1.00, 0.00, -0.00, -1.00, 1017.4, 216.6)">v</text><text xml:space="preserve" font-family="HelveticaNeue-Medium,Helvetica Neue" font-size="100.0" fill="#019DDC" transform="matrix(1.00, 0.00, -0.00, -1.00, 1069.3, 216.6)">e</text><text xml:space="preserve" font-family="HelveticaNeue-Medium,Helvetica Neue" font-size="100.0" fill="#019DDC" transform="matrix(1.00, 0.00, -0.00, -1.00, 1124.9, 216.6)">s</text><text xml:space="preserve" font-family="HelveticaNeue-Medium,Helvetica Neue" font-size="100.0" fill="#019DDC" transform="matrix(1.00, 0.00, -0.00, -1.00, 1176.8, 216.6)">e</text><text xml:space="preserve" font-family="HelveticaNeue-Medium,Helvetica Neue" font-size="100.0" fill="#019DDC" transform="matrix(1.00, 0.00, -0.00, -1.00, 1232.4, 216.6)">s</text><text xml:space="preserve" font-family="HelveticaNeue-Medium,Helvetica Neue" font-size="100.0" fill="#019DDC" transform="matrix(1.00, 0.00, -0.00, -1.00, 1284.3, 216.6)">s</text><text xml:space="preserve" font-family="HelveticaNeue-Medium,Helvetica Neue" font-size="100.0" fill="#019DDC" transform="matrix(1.00, 0.00, -0.00, -1.00, 1336.2, 216.6)">i</text><text xml:space="preserve" font-family="HelveticaNeue-Medium,Helvetica Neue" font-size="100.0" fill="#019DDC" transform="matrix(1.00, 0.00, -0.00, -1.00, 1360.3, 216.6)">o</text><text xml:space="preserve" font-family="HelveticaNeue-Medium,Helvetica Neue" font-size="100.0" fill="#019DDC" transform="matrix(1.00, 0.00, -0.00, -1.00, 1419.6, 216.6)">n</text><image xlink:href="B90D5E32AD35109BEFC47CA1E94020B2.png" width="1614.00" height="52.00" transform="matrix(1.00, 0.00, -0.00, -1.00, 155.0, 78.0)"></image><text xml:space="preserve" font-family="HelveticaNeue-Light,Helvetica Neue" font-size="58.0" fill="#73BFFF" transform="matrix(1.00, 0.00, -0.00, -1.00, 155.3, 34.0)">E</text><text xml:space="preserve" font-family="HelveticaNeue-Light,Helvetica Neue" font-size="58.0" fill="#73BFFF" transform="matrix(1.00, 0.00, -0.00, -1.00, 189.7, 34.0)">i</text><text xml:space="preserve" font-family="HelveticaNeue-Light,Helvetica Neue" font-size="58.0" fill="#73BFFF" transform="matrix(1.00, 0.00, -0.00, -1.00, 200.5, 34.0)">n</text><text xml:space="preserve" font-family="HelveticaNeue-Light,Helvetica Neue" font-size="58.0" fill="#73BFFF" transform="matrix(1.00, 0.00, -0.00, -1.00, 231.6, 34.0)">e</text><text xml:space="preserve" font-family="HelveticaNeue-Light,Helvetica Neue" font-size="58.0" fill="#73BFFF" transform="matrix(1.00, 0.00, -0.00, -1.00, 261.7, 34.0)"> </text><text xml:space="preserve" font-family="HelveticaNeue-Light,Helvetica Neue" font-size="58.0" fill="#73BFFF" transform="matrix(1.00, 0.00, -0.00, -1.00, 277.8, 34.0)">P</text><text xml:space="preserve" font-family="HelveticaNeue-Light,Helvetica Neue" font-size="58.0" fill="#73BFFF" transform="matrix(1.00, 0.00, -0.00, -1.00, 314.4, 34.0)">r</text><text xml:space="preserve" font-family="HelveticaNeue-Light,Helvetica Neue" font-size="58.0" fill="#73BFFF" transform="matrix(1.00, 0.00, -0.00, -1.00, 332.6, 34.0)">ä</text><text xml:space="preserve" font-family="HelveticaNeue-Light,Helvetica Neue" font-size="58.0" fill="#73BFFF" transform="matrix(1.00, 0.00, -0.00, -1.00, 362.7, 34.0)">s</text><text xml:space="preserve" font-family="HelveticaNeue-Light,Helvetica Neue" font-size="58.0" fill="#73BFFF" transform="matrix(1.00, 0.00, -0.00, -1.00, 390.6, 34.0)">e</text><text xml:space="preserve" font-family="HelveticaNeue-Light,Helvetica Neue" font-size="58.0" fill="#73BFFF" transform="matrix(1.00, 0.00, -0.00, -1.00, 420.7, 34.0)">n</text><text xml:space="preserve" font-family="HelveticaNeue-Light,Helvetica Neue" font-size="58.0" fill="#73BFFF" transform="matrix(1.00, 0.00, -0.00, -1.00, 451.9, 34.0)">t</text><text xml:space="preserve" font-family="HelveticaNeue-Light,Helvetica Neue" font-size="58.0" fill="#73BFFF" transform="matrix(1.00, 0.00, -0.00, -1.00, 469.1, 34.0)">a</text><text xml:space="preserve" font-family="HelveticaNeue-Light,Helvetica Neue" font-size="58.0" fill="#73BFFF" transform="matrix(1.00, 0.00, -0.00, -1.00, 499.2, 34.0)">t</text><text xml:space="preserve" font-family="HelveticaNeue-Light,Helvetica Neue" font-size="58.0" fill="#73BFFF" transform="matrix(1.00, 0.00, -0.00, -1.00, 516.3, 34.0)">i</text><text xml:space="preserve" font-family="HelveticaNeue-Light,Helvetica Neue" font-size="58.0" fill="#73BFFF" transform="matrix(1.00, 0.00, -0.00, -1.00, 527.1, 34.0)">o</text><text xml:space="preserve" font-family="HelveticaNeue-Light,Helvetica Neue" font-size="58.0" fill="#73BFFF" transform="matrix(1.00, 0.00, -0.00, -1.00, 559.3, 34.0)">n</text><text xml:space="preserve" font-family="HelveticaNeue-Light,Helvetica Neue" font-size="58.0" fill="#73BFFF" transform="matrix(1.00, 0.00, -0.00, -1.00, 590.5, 34.0)"> </text><text xml:space="preserve" font-family="HelveticaNeue-Light,Helvetica Neue" font-size="58.0" fill="#73BFFF" transform="matrix(1.00, 0.00, -0.00, -1.00, 606.6, 34.0)">v</text><text xml:space="preserve" font-family="HelveticaNeue-Light,Helvetica Neue" font-size="58.0" fill="#73BFFF" transform="matrix(1.00, 0.00, -0.00, -1.00, 633.4, 34.0)">o</text><text xml:space="preserve" font-family="HelveticaNeue-Light,Helvetica Neue" font-size="58.0" fill="#73BFFF" transform="matrix(1.00, 0.00, -0.00, -1.00, 665.7, 34.0)">n</text><text xml:space="preserve" font-family="HelveticaNeue-Light,Helvetica Neue" font-size="58.0" fill="#73BFFF" transform="matrix(1.00, 0.00, -0.00, -1.00, 696.8, 34.0)"> </text><text xml:space="preserve" font-family="HelveticaNeue-Light,Helvetica Neue" font-size="58.0" fill="#73BFFF" transform="matrix(1.00, 0.00, -0.00, -1.00, 712.9, 34.0)">F</text><text xml:space="preserve" font-family="HelveticaNeue-Light,Helvetica Neue" font-size="58.0" fill="#73BFFF" transform="matrix(1.00, 0.00, -0.00, -1.00, 744.1, 34.0)">r</text><text xml:space="preserve" font-family="HelveticaNeue-Light,Helvetica Neue" font-size="58.0" fill="#73BFFF" transform="matrix(1.00, 0.00, -0.00, -1.00, 762.4, 34.0)">a</text><text xml:space="preserve" font-family="HelveticaNeue-Light,Helvetica Neue" font-size="58.0" fill="#73BFFF" transform="matrix(1.00, 0.00, -0.00, -1.00, 792.5, 34.0)">n</text><text xml:space="preserve" font-family="HelveticaNeue-Light,Helvetica Neue" font-size="58.0" fill="#73BFFF" transform="matrix(1.00, 0.00, -0.00, -1.00, 823.6, 34.0)">z</text><text xml:space="preserve" font-family="HelveticaNeue-Light,Helvetica Neue" font-size="58.0" fill="#73BFFF" transform="matrix(1.00, 0.00, -0.00, -1.00, 850.5, 34.0)">i</text><text xml:space="preserve" font-family="HelveticaNeue-Light,Helvetica Neue" font-size="58.0" fill="#73BFFF" transform="matrix(1.00, 0.00, -0.00, -1.00, 861.2, 34.0)">s</text><text xml:space="preserve" font-family="HelveticaNeue-Light,Helvetica Neue" font-size="58.0" fill="#73BFFF" transform="matrix(1.00, 0.00, -0.00, -1.00, 889.1, 34.0)">k</text><text xml:space="preserve" font-family="HelveticaNeue-Light,Helvetica Neue" font-size="58.0" fill="#73BFFF" transform="matrix(1.00, 0.00, -0.00, -1.00, 918.1, 34.0)">a</text><text xml:space="preserve" font-family="HelveticaNeue-Light,Helvetica Neue" font-size="58.0" fill="#73BFFF" transform="matrix(1.00, 0.00, -0.00, -1.00, 948.2, 34.0)"> </text><text xml:space="preserve" font-family="HelveticaNeue-Light,Helvetica Neue" font-size="58.0" fill="#73BFFF" transform="matrix(1.00, 0.00, -0.00, -1.00, 964.3, 34.0)">S</text><text xml:space="preserve" font-family="HelveticaNeue-Light,Helvetica Neue" font-size="58.0" fill="#73BFFF" transform="matrix(1.00, 0.00, -0.00, -1.00, 1000.9, 34.0)">c</text><text xml:space="preserve" font-family="HelveticaNeue-Light,Helvetica Neue" font-size="58.0" fill="#73BFFF" transform="matrix(1.00, 0.00, -0.00, -1.00, 1031.0, 34.0)">h</text><text xml:space="preserve" font-family="HelveticaNeue-Light,Helvetica Neue" font-size="58.0" fill="#73BFFF" transform="matrix(1.00, 0.00, -0.00, -1.00, 1062.1, 34.0)">m</text><text xml:space="preserve" font-family="HelveticaNeue-Light,Helvetica Neue" font-size="58.0" fill="#73BFFF" transform="matrix(1.00, 0.00, -0.00, -1.00, 1110.4, 34.0)">i</text><text xml:space="preserve" font-family="HelveticaNeue-Light,Helvetica Neue" font-size="58.0" fill="#73BFFF" transform="matrix(1.00, 0.00, -0.00, -1.00, 1121.2, 34.0)">d</text><text xml:space="preserve" font-family="HelveticaNeue-Light,Helvetica Neue" font-size="58.0" fill="#73BFFF" transform="matrix(1.00, 0.00, -0.00, -1.00, 1154.4, 34.0)">t</text><text xml:space="preserve" font-family="HelveticaNeue-Light,Helvetica Neue" font-size="58.0" fill="#73BFFF" transform="matrix(1.00, 0.00, -0.00, -1.00, 1171.6, 34.0)"> </text><text xml:space="preserve" font-family="HelveticaNeue-Light,Helvetica Neue" font-size="58.0" fill="#73BFFF" transform="matrix(1.00, 0.00, -0.00, -1.00, 1187.7, 34.0)">u</text><text xml:space="preserve" font-family="HelveticaNeue-Light,Helvetica Neue" font-size="58.0" fill="#73BFFF" transform="matrix(1.00, 0.00, -0.00, -1.00, 1218.9, 34.0)">n</text><text xml:space="preserve" font-family="HelveticaNeue-Light,Helvetica Neue" font-size="58.0" fill="#73BFFF" transform="matrix(1.00, 0.00, -0.00, -1.00, 1250.0, 34.0)">d</text><text xml:space="preserve" font-family="HelveticaNeue-Light,Helvetica Neue" font-size="58.0" fill="#73BFFF" transform="matrix(1.00, 0.00, -0.00, -1.00, 1283.3, 34.0)"> </text><text xml:space="preserve" font-family="HelveticaNeue-Light,Helvetica Neue" font-size="58.0" fill="#73BFFF" transform="matrix(1.00, 0.00, -0.00, -1.00, 1299.4, 34.0)">T</text><text xml:space="preserve" font-family="HelveticaNeue-Light,Helvetica Neue" font-size="58.0" fill="#73BFFF" transform="matrix(1.00, 0.00, -0.00, -1.00, 1325.3, 34.0)">o</text><text xml:space="preserve" font-family="HelveticaNeue-Light,Helvetica Neue" font-size="58.0" fill="#73BFFF" transform="matrix(1.00, 0.00, -0.00, -1.00, 1357.5, 34.0)">b</text><text xml:space="preserve" font-family="HelveticaNeue-Light,Helvetica Neue" font-size="58.0" fill="#73BFFF" transform="matrix(1.00, 0.00, -0.00, -1.00, 1390.8, 34.0)">i</text><text xml:space="preserve" font-family="HelveticaNeue-Light,Helvetica Neue" font-size="58.0" fill="#73BFFF" transform="matrix(1.00, 0.00, -0.00, -1.00, 1401.5, 34.0)">a</text><text xml:space="preserve" font-family="HelveticaNeue-Light,Helvetica Neue" font-size="58.0" fill="#73BFFF" transform="matrix(1.00, 0.00, -0.00, -1.00, 1431.6, 34.0)">s</text><text xml:space="preserve" font-family="HelveticaNeue-Light,Helvetica Neue" font-size="58.0" fill="#73BFFF" transform="matrix(1.00, 0.00, -0.00, -1.00, 1459.5, 34.0)"> </text><text xml:space="preserve" font-family="HelveticaNeue-Light,Helvetica Neue" font-size="58.0" fill="#73BFFF" transform="matrix(1.00, 0.00, -0.00, -1.00, 1475.6, 34.0)">W</text><text xml:space="preserve" font-family="HelveticaNeue-Light,Helvetica Neue" font-size="58.0" fill="#73BFFF" transform="matrix(1.00, 0.00, -0.00, -1.00, 1527.2, 34.0)">e</text><text xml:space="preserve" font-family="HelveticaNeue-Light,Helvetica Neue" font-size="58.0" fill="#73BFFF" transform="matrix(1.00, 0.00, -0.00, -1.00, 1557.3, 34.0)">s</text><text xml:space="preserve" font-family="HelveticaNeue-Light,Helvetica Neue" font-size="58.0" fill="#73BFFF" transform="matrix(1.00, 0.00, -0.00, -1.00, 1585.2, 34.0)">t</text><text xml:space="preserve" font-family="HelveticaNeue-Light,Helvetica Neue" font-size="58.0" fill="#73BFFF" transform="matrix(1.00, 0.00, -0.00, -1.00, 1602.4, 34.0)">e</text><text xml:space="preserve" font-family="HelveticaNeue-Light,Helvetica Neue" font-size="58.0" fill="#73BFFF" transform="matrix(1.00, 0.00, -0.00, -1.00, 1632.5, 34.0)">r</text><text xml:space="preserve" font-family="HelveticaNeue-Light,Helvetica Neue" font-size="58.0" fill="#73BFFF" transform="matrix(1.00, 0.00, -0.00, -1.00, 1650.8, 34.0)">b</text><text xml:space="preserve" font-family="HelveticaNeue-Light,Helvetica Neue" font-size="58.0" fill="#73BFFF" transform="matrix(1.00, 0.00, -0.00, -1.00, 1684.0, 34.0)">o</text><text xml:space="preserve" font-family="HelveticaNeue-Light,Helvetica Neue" font-size="58.0" fill="#73BFFF" transform="matrix(1.00, 0.00, -0.00, -1.00, 1716.3, 34.0)">e</text><text xml:space="preserve" font-family="HelveticaNeue-Light,Helvetica Neue" font-size="58.0" fill="#73BFFF" transform="matrix(1.00, 0.00, -0.00, -1.00, 1746.4, 34.0)">r</text></g></svg>